<?xml version="1.0" encoding="UTF-8"?>
<svg version="1.1" xmlns="http://www.w3.org/2000/svg" width="657" height="657">
<path d="M0 0 C4.18671494 0.19688626 6.01302286 0.66419215 9.35742188 3.36987305 C11.79700957 6.29884597 13.84259295 9.49410307 15.89404297 12.7019043 C18.77006439 17.03119997 22.03908678 21.07101556 25.22460938 25.17456055 C31.11362804 32.88872011 36.90948284 40.66899285 42.63208008 48.50732422 C45.40575827 52.29986998 48.2208886 56.0507956 51.11108398 59.75561523 C52.0425248 60.95042511 52.0425248 60.95042511 52.99278259 62.16937256 C53.46116043 62.76920959 53.92953827 63.36904663 54.41210938 63.98706055 C54.42241684 63.21254044 54.4327243 62.43802032 54.44334412 61.64002991 C54.54115234 54.35577133 54.64364248 47.07160109 54.75144863 39.78748417 C54.80671168 36.04227257 54.86013693 32.29705321 54.90942383 28.55175781 C54.95701772 24.94017469 55.00935844 21.32868923 55.06505013 17.71722221 C55.08549632 16.33648535 55.10420559 14.95572169 55.1211834 13.57493782 C55.14517718 11.64722741 55.17581202 9.71960306 55.20678711 7.79199219 C55.22233139 6.69278946 55.23787567 5.59358673 55.25389099 4.46107483 C55.41210938 1.98706055 55.41210938 1.98706055 56.41210938 0.98706055 C59.2362732 0.86042964 62.02505731 0.80185507 64.84960938 0.79956055 C65.63916016 0.78731445 66.42871094 0.77506836 67.2421875 0.76245117 C69.30018372 0.75718775 71.35772947 0.86499769 73.41210938 0.98706055 C76.08336517 3.65831634 75.65780192 5.67367041 75.6831665 9.30596924 C75.67911804 10.1933075 75.67506958 11.08064575 75.67089844 11.99487305 C75.67440308 12.92829529 75.67790771 13.86171753 75.68151855 14.82342529 C75.6903464 17.91971192 75.68448299 21.01577146 75.67773438 24.11206055 C75.67908072 26.25675501 75.681021 28.40144917 75.68353271 30.54614258 C75.68648541 35.04535828 75.68218165 39.54449467 75.67285156 44.04370117 C75.66145698 49.82115999 75.66801568 55.59843301 75.67999649 61.37588501 C75.68721116 65.80584116 75.68492897 70.23575299 75.67974091 74.66571045 C75.67840332 76.79644798 75.68005591 78.92718948 75.68470001 81.05792236 C75.68975878 84.03180656 75.68206413 87.0053866 75.67089844 89.97924805 C75.6749469 90.8665863 75.67899536 91.75392456 75.6831665 92.66815186 C75.64063697 98.75853295 75.64063697 98.75853295 73.41210938 100.98706055 C67.98979442 102.60293745 62.7431908 103.23785804 57.41210938 100.98706055 C51.55554128 96.05377604 47.51084568 89.23603053 43.34375 82.89086914 C40.40223354 78.46892819 37.2168357 74.23902523 34.03710938 69.98706055 C32.89144319 68.42799808 31.74687859 66.86812541 30.60351562 65.30737305 C26.30018342 59.4606082 21.87256232 53.71460439 17.41210938 47.98706055 C16.1957941 46.42348972 14.97957258 44.85984597 13.76342773 43.29614258 C13.13520615 42.48839386 12.50698456 41.68064514 11.85972595 40.84841919 C11.14315575 39.92704666 11.14315575 39.92704666 10.41210938 38.98706055 C10.40180191 39.74905258 10.39149445 40.51104462 10.38087463 41.29612732 C10.28306528 48.46265794 10.18057498 55.62909882 10.07277012 62.7954855 C10.01750772 66.48016244 9.96408259 70.16484728 9.91479492 73.84960938 C9.86720006 77.40283895 9.81485931 80.95596929 9.75916862 84.50908089 C9.73872287 85.86748866 9.72001352 87.22592366 9.70303535 88.5843792 C9.6790406 90.4809576 9.64840606 92.37744853 9.61743164 94.27392578 C9.60188736 95.35536362 9.58634308 96.43680145 9.57032776 97.55101013 C9.41210938 99.98706055 9.41210938 99.98706055 8.41210938 100.98706055 C7.08167313 101.08543265 5.74617593 101.11784647 4.41210938 101.11987305 C3.60773438 101.12116211 2.80335938 101.12245117 1.97460938 101.1237793 C1.12898438 101.11991211 0.28335937 101.11604492 -0.58789062 101.11206055 C-1.43351562 101.11592773 -2.27914063 101.11979492 -3.15039062 101.1237793 C-3.95476562 101.12249023 -4.75914062 101.12120117 -5.58789062 101.11987305 C-6.33039063 101.11874512 -7.07289063 101.11761719 -7.83789062 101.11645508 C-9.58789062 100.98706055 -9.58789062 100.98706055 -10.58789062 99.98706055 C-10.68853261 96.94840294 -10.72403652 93.93243325 -10.71728516 90.89331055 C-10.71903748 89.9389209 -10.72078979 88.98453125 -10.72259521 88.0012207 C-10.72701549 84.82981577 -10.72407512 81.6584661 -10.72070312 78.48706055 C-10.72137611 76.29370106 -10.7223461 74.10034165 -10.72360229 71.90698242 C-10.72507951 67.30345959 -10.72292396 62.69995613 -10.71826172 58.09643555 C-10.71256442 52.1810146 -10.7158433 46.26563901 -10.72183418 40.35021973 C-10.72543917 35.81908829 -10.7243015 31.28796769 -10.72170639 26.75683594 C-10.72103695 24.5750325 -10.72186614 22.39322809 -10.72418594 20.21142578 C-10.72671144 17.16786065 -10.72287332 14.12437009 -10.71728516 11.08081055 C-10.71930939 10.16960449 -10.72133362 9.25839844 -10.72341919 8.31958008 C-10.69416096 -0.23552659 -7.78867123 0.17443736 0 0 Z " fill="#36505D" transform="translate(456.587890625,258.012939453125)"/>
<path d="M0 0 C0.71055038 -0.00175232 1.42110077 -0.00350464 2.15318298 -0.00531006 C4.51295378 -0.00972824 6.87265025 -0.00679072 9.23242188 -0.00341797 C10.86527521 -0.00409102 12.49812845 -0.00506105 14.13098145 -0.00631714 C17.55754549 -0.00779407 20.98408351 -0.00563973 24.41064453 -0.00097656 C28.81271689 0.00472073 33.21472828 0.00144169 37.6167984 -0.00454903 C40.98985253 -0.00815478 44.3628921 -0.00701599 47.73594666 -0.00442123 C49.35953275 -0.003752 50.98312014 -0.00458025 52.60670471 -0.00690079 C54.87195358 -0.00942755 57.13710238 -0.00558641 59.40234375 0 C61.33974426 0.00119339 61.33974426 0.00119339 63.31628418 0.00241089 C66.20117188 0.12939453 66.20117188 0.12939453 67.20117188 1.12939453 C67.32784952 4.11957614 67.38638026 7.07633561 67.38867188 10.06689453 C67.40091797 10.90414063 67.41316406 11.74138672 67.42578125 12.60400391 C67.42771484 13.40515625 67.42964844 14.20630859 67.43164062 15.03173828 C67.43574951 15.76900146 67.4398584 16.50626465 67.4440918 17.26586914 C67.20117188 19.12939453 67.20117188 19.12939453 65.20117188 21.12939453 C62.91061401 21.36990356 62.91061401 21.36990356 60.01708984 21.35644531 C58.92098389 21.35620361 57.82487793 21.35596191 56.69555664 21.35571289 C55.53983154 21.34548096 54.38410645 21.33524902 53.19335938 21.32470703 C52.13383057 21.32269287 51.07430176 21.32067871 49.98266602 21.31860352 C46.01379078 21.30811659 42.04497711 21.28019416 38.07617188 21.25439453 C24.77304688 21.19251953 24.77304688 21.19251953 11.20117188 21.12939453 C11.20117188 40.59939453 11.20117188 60.06939453 11.20117188 80.12939453 C29.21168484 80.08980006 29.21168484 80.08980006 47.22216797 80.03930664 C49.47298129 80.0363872 51.72379514 80.03383871 53.97460938 80.03173828 C55.15192627 80.02662231 56.32924316 80.02150635 57.54223633 80.01623535 C58.65864502 80.0161145 59.77505371 80.01599365 60.92529297 80.01586914 C61.89792084 80.01364853 62.87054871 80.01142792 63.87265015 80.00914001 C66.20117188 80.12939453 66.20117188 80.12939453 68.20117188 81.12939453 C68.22801175 84.10862047 68.24793225 87.08760748 68.26367188 90.06689453 C68.27205078 90.91703125 68.28042969 91.76716797 68.2890625 92.64306641 C68.29228516 93.45195312 68.29550781 94.26083984 68.29882812 95.09423828 C68.30406494 95.84310303 68.30930176 96.59196777 68.31469727 97.36352539 C68.20117188 99.12939453 68.20117188 99.12939453 67.20117188 100.12939453 C64.91161093 100.23966092 62.61859935 100.2785466 60.32641602 100.29052734 C59.60771835 100.29549225 58.88902069 100.30045715 58.14854431 100.30557251 C55.76112933 100.32022781 53.37378077 100.32700134 50.98632812 100.33251953 C49.33345028 100.33826779 47.68057248 100.34402555 46.0276947 100.34979248 C42.55825488 100.36031177 39.0888383 100.36614849 35.61938477 100.36962891 C31.16573231 100.37511858 26.71238484 100.3991526 22.25882816 100.42760086 C18.84369499 100.44618978 15.42863585 100.45143081 12.01345634 100.45296478 C10.37114225 100.45599986 8.72882972 100.46405698 7.08656502 100.47714996 C4.79257876 100.49413451 2.49934523 100.49234944 0.20532227 100.48583984 C-1.10182236 100.48948547 -2.40896698 100.4931311 -3.75572205 100.49688721 C-4.75994705 100.37561462 -5.76417206 100.25434204 -6.79882812 100.12939453 C-9.30918789 96.36385488 -9.07324545 93.41181314 -9.04174805 89.05297852 C-9.04364639 88.2297963 -9.04554474 87.40661407 -9.04750061 86.55848694 C-9.05121159 83.83072447 -9.0404932 81.10322722 -9.02929688 78.37548828 C-9.02810432 76.47559134 -9.02765207 74.57569381 -9.02790833 72.67579651 C-9.0263425 68.68690312 -9.0180501 64.69809935 -9.00463867 60.70922852 C-8.98772955 55.61755909 -8.98382209 50.52598891 -8.98458385 45.4342947 C-8.98431056 41.50585497 -8.97880258 37.57743657 -8.97158241 33.64900398 C-8.9684173 31.77328719 -8.96643342 29.89756799 -8.96568871 28.02184868 C-8.94240647 0.0055083 -8.94240647 0.0055083 0 0 Z " fill="#36505C" transform="translate(135.798828125,258.87060546875)"/>
<path d="M0 0 C1.31238144 0.00222061 2.62476288 0.00444122 3.97691345 0.00672913 C4.6988237 0.0065831 5.42073395 0.00643707 6.16452026 0.00628662 C8.56156879 0.00698583 10.95854054 0.01477857 13.35557556 0.02259827 C15.0132442 0.02446242 16.67091338 0.02588633 18.32858276 0.02688599 C22.69996145 0.03071139 27.07130712 0.04054186 31.44267273 0.05158997 C35.89996392 0.0618036 40.35726043 0.0663835 44.81455994 0.07142639 C53.56652824 0.08216412 62.31846968 0.0992408 71.07041931 0.12025452 C73.39896048 4.22827095 73.17154616 7.71452537 72.82041931 12.30775452 C72.78045837 13.04445374 72.74049744 13.78115295 72.69932556 14.54017639 C72.57219262 16.40765627 72.3301461 18.26655932 72.07041931 20.12025452 C69.49908473 21.40592181 67.67324831 21.2403523 64.79454041 21.23377991 C63.11992737 21.23359863 63.11992737 21.23359863 61.41148376 21.2334137 C60.23416687 21.22829773 59.05684998 21.22318176 57.84385681 21.21791077 C56.7646698 21.21690369 55.68548279 21.21589661 54.57359314 21.21485901 C50.53085777 21.20961533 46.4881375 21.19565414 42.44541931 21.18275452 C33.41166931 21.16212952 24.37791931 21.14150452 15.07041931 21.12025452 C15.07041931 40.59025452 15.07041931 60.06025452 15.07041931 80.12025452 C33.08093227 80.08066004 33.08093227 80.08066004 51.09141541 80.03016663 C53.34222873 80.02724718 55.59304258 80.02469869 57.84385681 80.02259827 C59.02117371 80.0174823 60.1984906 80.01236633 61.41148376 80.00709534 C62.52789246 80.00697449 63.64430115 80.00685364 64.79454041 80.00672913 C65.76716827 80.00450851 66.73979614 80.0022879 67.74189758 80 C70.07041931 80.12025452 70.07041931 80.12025452 72.07041931 81.12025452 C72.09725918 84.09948045 72.11717968 87.07846746 72.13291931 90.05775452 C72.14129822 90.90789124 72.14967712 91.75802795 72.15830994 92.63392639 C72.16153259 93.44281311 72.16475525 94.25169983 72.16807556 95.08509827 C72.17331238 95.83396301 72.17854919 96.58282776 72.1839447 97.35438538 C72.07041931 99.12025452 72.07041931 99.12025452 71.07041931 100.12025452 C68.77530435 100.21996607 66.47707382 100.24825318 64.17979431 100.24964905 C63.45949036 100.25140137 62.7391864 100.25315369 61.99705505 100.25495911 C59.60481897 100.2593774 57.21265621 100.25643973 54.82041931 100.25306702 C53.16514573 100.25374006 51.50987224 100.25471009 49.854599 100.25596619 C46.38095664 100.25744313 42.90733995 100.25528872 39.43370056 100.25062561 C34.97109433 100.24492832 30.50854824 100.24820734 26.04594421 100.25419807 C22.62656701 100.25780379 19.20720417 100.25666505 15.78782654 100.25407028 C14.14191175 100.25340104 12.49599568 100.25422933 10.8500824 100.25654984 C8.553701 100.25907654 6.25741832 100.25523555 3.96104431 100.24964905 C1.99699646 100.24845566 1.99699646 100.24845566 -0.00672913 100.24723816 C-2.92958069 100.12025452 -2.92958069 100.12025452 -3.92958069 99.12025452 C-4.03022268 96.08159691 -4.06572659 93.06562722 -4.05897522 90.02650452 C-4.06072754 89.07211487 -4.06247986 88.11772522 -4.06428528 87.13441467 C-4.06870555 83.96300974 -4.06576519 80.79166007 -4.06239319 77.62025452 C-4.06306618 75.42689503 -4.06403616 73.23353562 -4.06529236 71.04017639 C-4.06676957 66.43665356 -4.06461403 61.8331501 -4.05995178 57.22962952 C-4.05425449 51.31420857 -4.05753337 45.39883298 -4.06352425 39.4834137 C-4.06712923 34.95228226 -4.06599156 30.42116166 -4.06339645 25.89002991 C-4.06272701 23.70822647 -4.06355621 21.52642206 -4.06587601 19.34461975 C-4.06840151 16.30105462 -4.06456339 13.25756406 -4.05897522 10.21400452 C-4.06099945 9.30279846 -4.06302368 8.39159241 -4.06510925 7.45277405 C-4.04018815 0.16584314 -4.04018815 0.16584314 0 0 Z " fill="#364F5C" transform="translate(554.9295806884766,258.87974548339844)"/>
<path d="M0 0 C1.27617187 0.00483398 1.27617187 0.00483398 2.578125 0.00976562 C3.46757812 0.01814453 4.35703125 0.02652344 5.2734375 0.03515625 C6.170625 0.03966797 7.0678125 0.04417969 7.9921875 0.04882812 C10.21100398 0.06063034 12.42968768 0.0770947 14.6484375 0.09765625 C17.12480518 4.47995461 19.59239975 8.86709936 22.0546875 13.25732422 C23.21763373 15.32989107 24.38187399 17.40173198 25.546875 19.47314453 C27.26163874 22.52269346 28.97146115 25.57497535 30.67868042 28.62875366 C31.36755006 29.85926933 32.05792277 31.08894474 32.74978638 32.31777954 C33.73170488 34.06248212 34.70776947 35.81047533 35.68359375 37.55859375 C36.254729 38.57743652 36.82586426 39.5962793 37.41430664 40.64599609 C38.6484375 43.09765625 38.6484375 43.09765625 38.6484375 45.09765625 C39.3084375 45.09765625 39.9684375 45.09765625 40.6484375 45.09765625 C40.92679443 44.37489502 41.20515137 43.65213379 41.49194336 42.9074707 C42.59282306 40.23277691 43.81724116 37.70523863 45.15234375 35.140625 C45.64178467 34.19977051 46.13122559 33.25891602 46.63549805 32.28955078 C47.15539307 31.29810059 47.67528809 30.30665039 48.2109375 29.28515625 C48.74307861 28.2679248 49.27521973 27.25069336 49.82348633 26.20263672 C62.31630125 2.4297925 62.31630125 2.4297925 64.6484375 0.09765625 C66.06413873 0.01114014 67.4840325 -0.00939279 68.90234375 0 C70.18334961 0.00483398 70.18334961 0.00483398 71.49023438 0.00976562 C72.83698242 0.02233398 72.83698242 0.02233398 74.2109375 0.03515625 C75.11263672 0.03966797 76.01433594 0.04417969 76.94335938 0.04882812 C79.17845064 0.060654 81.41341187 0.07713405 83.6484375 0.09765625 C84.84228516 1.72070312 84.84228516 1.72070312 85.6484375 4.09765625 C84.50537109 6.89648438 84.50537109 6.89648438 82.546875 10.12890625 C82.19902451 10.71310837 81.85117401 11.29731049 81.49278259 11.8992157 C80.35127383 13.80814148 79.18771954 15.70255053 78.0234375 17.59765625 C77.23314811 18.90967821 76.44433657 20.22259144 75.65698242 21.53637695 C74.07699941 24.16712624 72.4883565 26.79229249 70.89111328 29.41259766 C68.92726348 32.63476797 66.98406864 35.86874844 65.05078125 39.109375 C63.12792864 42.33230819 61.20050324 45.55224931 59.26171875 48.765625 C58.8426123 49.48153809 58.42350586 50.19745117 57.99169922 50.93505859 C56.6484375 53.09765625 56.6484375 53.09765625 55.01220703 55.23291016 C49.20800282 63.29554621 49.81897032 71.56353266 49.8984375 81.09765625 C49.89699415 83.50660045 49.88716493 85.91511362 49.86712646 88.32397461 C49.85693344 89.81303634 49.85863969 91.30223827 49.87359619 92.79125977 C49.86976476 97.87632899 49.86976476 97.87632899 47.6484375 100.09765625 C44.75711573 100.26944677 41.97401685 100.32995095 39.0859375 100.28515625 C38.29251953 100.28451172 37.49910156 100.28386719 36.68164062 100.28320312 C30.78869272 100.23791147 30.78869272 100.23791147 29.6484375 99.09765625 C29.59951834 96.69278263 29.60794483 94.31003735 29.6484375 91.90625 C30.28867385 69.72266179 30.28867385 69.72266179 21.17773438 50.20898438 C17.8526304 45.61838744 15.14104973 40.60624729 12.2734375 35.72265625 C8.64531142 29.66117015 4.98906369 23.61927757 1.23828125 17.6328125 C0.72378418 16.80765137 0.20928711 15.98249023 -0.32080078 15.13232422 C-1.27345252 13.60941204 -2.23364332 12.09118018 -3.20263672 10.57861328 C-5.40435971 7.05636438 -6.3515625 5.35393008 -6.3515625 1.09765625 C-4.00303722 -0.07660639 -2.61382185 -0.01742548 0 0 Z " fill="#354F5C" transform="translate(219.3515625,258.90234375)"/>
<path d="M0 0 C0.73734375 0.00773437 1.4746875 0.01546875 2.234375 0.0234375 C3.34039062 0.01183594 3.34039062 0.01183594 4.46875 0 C9.9810554 0.0201179 9.9810554 0.0201179 12.234375 2.2734375 C12.4221451 4.77305996 12.48631571 7.16087947 12.46142578 9.66064453 C12.46171783 10.42171509 12.46200989 11.18278564 12.46231079 11.96691895 C12.46091481 14.48847766 12.44534118 17.00974275 12.4296875 19.53125 C12.42595832 21.27716917 12.4231109 23.02309044 12.42111206 24.76901245 C12.41346811 29.3689347 12.39381313 33.96873107 12.3717041 38.56860352 C12.35126204 43.2605621 12.34211386 47.95254099 12.33203125 52.64453125 C12.31056792 61.85422204 12.27642283 71.06381931 12.234375 80.2734375 C12.89392181 80.26677567 13.55346863 80.26011383 14.23300171 80.25325012 C21.0781366 80.18704111 27.92318102 80.14169711 34.76855469 80.10864258 C37.32555839 80.0935268 39.88253606 80.07303384 42.43945312 80.04711914 C46.10813817 80.01085888 49.7764814 79.99373914 53.4453125 79.98046875 C54.59430023 79.96498489 55.74328796 79.94950104 56.92709351 79.93354797 C58.51851669 79.93320808 58.51851669 79.93320808 60.14208984 79.93286133 C61.54773697 79.92286858 61.54773697 79.92286858 62.98178101 79.91267395 C63.72513702 80.03172592 64.46849304 80.15077789 65.234375 80.2734375 C67.31666608 83.39687413 67.47207957 83.81196672 67.2109375 87.28515625 C67.13359375 88.42114258 67.13359375 88.42114258 67.0546875 89.58007812 C66.99023438 90.36576172 66.92578125 91.15144531 66.859375 91.9609375 C66.77429688 93.15686523 66.77429688 93.15686523 66.6875 94.37695312 C66.54621472 96.34317331 66.39157594 98.30842574 66.234375 100.2734375 C56.73363175 100.29656234 47.23289812 100.3143533 37.73213291 100.32524967 C33.32100496 100.33047819 28.9098962 100.33757527 24.4987793 100.34887695 C20.24536385 100.35970694 15.99196691 100.36571457 11.73853874 100.36831474 C10.11215867 100.37016879 8.48577966 100.37378902 6.85940742 100.37916756 C4.58927307 100.38637948 2.31921615 100.38742838 0.04907227 100.38696289 C-1.89285255 100.39029381 -1.89285255 100.39029381 -3.87400818 100.39369202 C-6.765625 100.2734375 -6.765625 100.2734375 -7.765625 99.2734375 C-7.87158367 96.27067057 -7.91240054 93.29077854 -7.91088867 90.28735352 C-7.91424728 89.34432373 -7.9176059 88.40129395 -7.92106628 87.4296875 C-7.93060725 84.29555972 -7.93252096 81.16148517 -7.93359375 78.02734375 C-7.9368041 75.85880002 -7.940168 73.69025652 -7.94367981 71.52171326 C-7.94967893 66.96946714 -7.9515189 62.41724003 -7.95092773 57.86499023 C-7.95082606 52.01913567 -7.9644806 46.17340242 -7.98169994 40.32757664 C-7.99279428 35.84701472 -7.99484774 31.36648237 -7.99431801 26.88590813 C-7.99550192 24.73004679 -7.99994652 22.57418477 -8.00765038 20.41833687 C-8.01739881 17.40844239 -8.0145927 14.39881437 -8.00854492 11.38891602 C-8.01416443 10.49065598 -8.01978394 9.59239594 -8.02557373 8.66691589 C-7.98930009 1.59743228 -7.24372636 0.02643696 0 0 Z " fill="#37505D" transform="translate(324.765625,258.7265625)"/>
<path d="M0 0 C0.86931152 0.01047363 1.73862305 0.02094727 2.63427734 0.03173828 C3.57529297 0.03818359 4.51630859 0.04462891 5.48583984 0.05126953 C6.47068359 0.06802734 7.45552734 0.08478516 8.47021484 0.10205078 C9.46279297 0.11107422 10.45537109 0.12009766 11.47802734 0.12939453 C13.93399618 0.15300962 16.38948653 0.18594279 18.84521484 0.22705078 C19.50521484 1.54705078 20.16521484 2.86705078 20.84521484 4.22705078 C20.17876953 5.00306641 19.51232422 5.77908203 18.82568359 6.57861328 C13.39578574 12.93207148 8.11721259 19.3708331 2.99047852 25.97119141 C-0.73181641 30.74148524 -4.59885144 35.37433393 -8.53955078 39.96533203 C-9.75203253 41.3795911 -10.95385239 42.80297172 -12.15478516 44.22705078 C-12.77353516 44.92572266 -13.39228516 45.62439453 -14.02978516 46.34423828 C-15.36819699 48.13872544 -15.36819699 48.13872544 -14.89404297 50.12304688 C-14.06788282 52.47438377 -13.05806043 53.87469753 -11.45166016 55.77392578 C-10.88987061 56.44601074 -10.32808105 57.1180957 -9.74926758 57.81054688 C-9.14058838 58.52549316 -8.53190918 59.24043945 -7.90478516 59.97705078 C-6.62427526 61.50522589 -5.34434079 63.03388332 -4.06494141 64.56298828 C-3.41283691 65.33868164 -2.76073242 66.114375 -2.08886719 66.91357422 C1.41321103 71.10262915 4.84103956 75.3517601 8.27075195 79.60009766 C10.70121843 82.60605216 13.1439779 85.59487942 15.65771484 88.53173828 C16.48271484 89.50369141 17.30771484 90.47564453 18.15771484 91.47705078 C18.87572266 92.30720703 19.59373047 93.13736328 20.33349609 93.99267578 C21.84521484 96.22705078 21.84521484 96.22705078 21.84521484 100.22705078 C18.1587994 100.4610232 14.47430329 100.60198789 10.78271484 100.72705078 C9.744375 100.79408203 8.70603516 100.86111328 7.63623047 100.93017578 C0.04257935 101.12303041 0.04257935 101.12303041 -3.30029297 98.62158203 C-5.1051701 96.5783249 -6.64206193 94.49315526 -8.15478516 92.22705078 C-8.95142578 91.21642578 -9.74806641 90.20580078 -10.56884766 89.16455078 C-11.29845703 88.19517578 -12.02806641 87.22580078 -12.77978516 86.22705078 C-16.6552965 81.11818055 -20.6544831 76.1254708 -24.71728516 71.16455078 C-26.86801376 68.52266109 -29.01308475 65.87626314 -31.15478516 63.22705078 C-31.64027832 62.62844238 -32.12577148 62.02983398 -32.62597656 61.41308594 C-33.94189884 59.7786837 -35.23880043 58.1311817 -36.52978516 56.47705078 C-37.25939453 55.55408203 -37.98900391 54.63111328 -38.74072266 53.68017578 C-40.15478516 51.22705078 -40.15478516 51.22705078 -39.88696289 49.28393555 C-39.12104753 47.13227269 -38.23293081 45.6774528 -36.85400391 43.86376953 C-36.37761475 43.23196777 -35.90122559 42.60016602 -35.41040039 41.94921875 C-34.89292236 41.27777832 -34.37544434 40.60633789 -33.84228516 39.91455078 C-33.30611572 39.20959473 -32.76994629 38.50463867 -32.2175293 37.77832031 C-27.6133085 31.75364127 -22.88932654 25.82664458 -18.12744141 19.92626953 C-14.58058767 15.52760773 -11.10126448 11.07648669 -7.63110352 6.6171875 C-2.68216526 0.28262108 -2.68216526 0.28262108 0 0 Z " fill="#354F5B" transform="translate(93.15478515625,258.77294921875)"/>
<path d="M0 0 C0.79792969 0.00386719 1.59585938 0.00773437 2.41796875 0.01171875 C3.21589844 0.00785156 4.01382813 0.00398438 4.8359375 0 C10.79136108 0.01011108 10.79136108 0.01011108 11.91796875 1.13671875 C12.01861074 4.17537636 12.05411465 7.19134605 12.04736328 10.23046875 C12.0491156 11.1848584 12.05086792 12.13924805 12.05267334 13.12255859 C12.05709362 16.29396352 12.05415325 19.4653132 12.05078125 22.63671875 C12.05145424 24.83007823 12.05242422 27.02343765 12.05368042 29.21679688 C12.05515763 33.8203197 12.05300209 38.42382317 12.04833984 43.02734375 C12.04264255 48.9427647 12.04592143 54.85814029 12.05191231 60.77355957 C12.05551729 65.30469101 12.05437962 69.8358116 12.05178452 74.36694336 C12.05111507 76.5487468 12.05194427 78.73055121 12.05426407 80.91235352 C12.05678957 83.95591865 12.05295145 86.99940921 12.04736328 90.04296875 C12.04938751 90.9541748 12.05141174 91.86538086 12.05349731 92.80419922 C12.03223104 99.02245646 12.03223104 99.02245646 10.91796875 100.13671875 C8.07461827 100.2365885 5.26099712 100.27549756 2.41796875 100.26171875 C1.62003906 100.26558594 0.82210937 100.26945312 0 100.2734375 C-5.95542358 100.26332642 -5.95542358 100.26332642 -7.08203125 99.13671875 C-7.18267324 96.09806114 -7.21817715 93.08209145 -7.21142578 90.04296875 C-7.2131781 89.0885791 -7.21493042 88.13418945 -7.21673584 87.15087891 C-7.22115612 83.97947398 -7.21821575 80.8081243 -7.21484375 77.63671875 C-7.21551674 75.44335927 -7.21648672 73.24999985 -7.21774292 71.05664062 C-7.21922013 66.4531178 -7.21706459 61.84961433 -7.21240234 57.24609375 C-7.20670505 51.3306728 -7.20998393 45.41529721 -7.21597481 39.49987793 C-7.21957979 34.96874649 -7.21844212 30.4376259 -7.21584702 25.90649414 C-7.21517757 23.7246907 -7.21600677 21.54288629 -7.21832657 19.36108398 C-7.22085207 16.31751885 -7.21701395 13.27402829 -7.21142578 10.23046875 C-7.21345001 9.3192627 -7.21547424 8.40805664 -7.21755981 7.46923828 C-7.19205698 0.01221062 -7.19205698 0.01221062 0 0 Z " fill="#324C5A" transform="translate(37.08203125,258.86328125)"/>
<path d="M0 0 C2.64 0 5.28 0 8 0 C8 1.32 8 2.64 8 4 C9.32 4.33 10.64 4.66 12 5 C12.33 4.01 12.66 3.02 13 2 C15.475 2.495 15.475 2.495 18 3 C18.66 4.98 19.32 6.96 20 9 C20.763125 8.896875 21.52625 8.79375 22.3125 8.6875 C25 9 25 9 26.875 11.3125 C28 14 28 14 27 17 C26.34 17 25.68 17 25 17 C25.495 18.98 25.495 18.98 26 21 C27.32 21 28.64 21 30 21 C30 23.31 30 25.62 30 28 C28.02 28.99 28.02 28.99 26 30 C26.66 30.99 27.32 31.98 28 33 C27.67873872 35.63434254 27.18644952 37.62710097 26 40 C23.4375 40.625 23.4375 40.625 21 41 C20.8453125 42.175625 20.8453125 42.175625 20.6875 43.375 C20 46 20 46 17 48 C15.68 48 14.36 48 13 48 C13 47.34 13 46.68 13 46 C12.01 46.66 11.02 47.32 10 48 C9.52454116 50.13331595 9.52454116 50.13331595 9.56762695 52.63330078 C9.54783279 53.59414581 9.52803864 54.55499084 9.50764465 55.54495239 C9.49805977 57.10438065 9.49805977 57.10438065 9.48828125 58.6953125 C9.47033005 59.75789276 9.45237885 60.82047302 9.43388367 61.91525269 C9.37957998 65.31846107 9.34582037 68.72152764 9.3125 72.125 C9.27934468 74.42840524 9.24485671 76.73179172 9.20898438 79.03515625 C9.12132621 84.69012686 9.06142744 90.34443947 9 96 C15.93 96 22.86 96 30 96 C30.020625 99.444375 30.04125 102.88875 30.0625 106.4375 C30.071604 107.52474365 30.08070801 108.6119873 30.09008789 109.73217773 C30.09258545 110.58239502 30.09508301 111.4326123 30.09765625 112.30859375 C30.10289307 113.18314209 30.10812988 114.05769043 30.11352539 114.95874023 C30 117 30 117 29 118 C19.1 118 9.2 118 -1 118 C-1 94.24 -1 70.48 -1 46 C-2.32 46 -3.64 46 -5 46 C-5 46.66 -5 47.32 -5 48 C-6.65 47.67 -8.3 47.34 -10 47 C-10.66 45.02 -11.32 43.04 -12 41 C-13.65 40.67 -15.3 40.34 -17 40 C-17.66 38.02 -18.32 36.04 -19 34 C-17.515 33.505 -17.515 33.505 -16 33 C-16.33 32.34 -16.66 31.68 -17 31 C-17.99 30.67 -18.98 30.34 -20 30 C-21.35439668 27.29120665 -21.06501451 24.99066732 -21 22 C-19.68 21.67 -18.36 21.34 -17 21 C-17.33 20.01 -17.66 19.02 -18 18 C-18.66 17.67 -19.32 17.34 -20 17 C-18.375 11.25 -18.375 11.25 -15 9 C-13.68 9 -12.36 9 -11 9 C-10.896875 8.21625 -10.79375 7.4325 -10.6875 6.625 C-10 4 -10 4 -7 2 C-6.01 2 -5.02 2 -4 2 C-4 2.99 -4 3.98 -4 5 C-0.75150023 3.27773504 -0.75150023 3.27773504 0 0 Z M2 3 C1.67 3.99 1.34 4.98 1 6 C-1.31 6.33 -3.62 6.66 -6 7 C-6 6.34 -6 5.68 -6 5 C-6.99 5.33 -7.98 5.66 -9 6 C-8.6596875 6.8971875 -8.6596875 6.8971875 -8.3125 7.8125 C-8 10 -8 10 -9.125 11.75 C-11.53854651 13.35903101 -13.15673536 13.23053497 -16 13 C-16.33 13.99 -16.66 14.98 -17 16 C-16.34 16.33 -15.68 16.66 -15 17 C-15.61538462 22.53846154 -15.61538462 22.53846154 -17.5625 24.875 C-18.036875 25.24625 -18.51125 25.6175 -19 26 C-17.68 26.33 -16.36 26.66 -15 27 C-14.34 29.64 -13.68 32.28 -13 35 C-13.66 35 -14.32 35 -15 35 C-15 35.99 -15 36.98 -15 38 C-13.35 38.33 -11.7 38.66 -10 39 C-9.34 40.98 -8.68 42.96 -8 45 C-6.63875 44.7525 -6.63875 44.7525 -5.25 44.5 C-2 44 -2 44 2 44 C2 67.43 2 90.86 2 115 C10.25 115 18.5 115 27 115 C27 109.72 27 104.44 27 99 C20.4 99 13.8 99 7 99 C7 80.85 7 62.7 7 44 C9.31 44 11.62 44 14 44 C14.66 44.66 15.32 45.32 16 46 C16.66 45.34 17.32 44.68 18 44 C18 42.68 18 41.36 18 40 C19.25 38.25 19.25 38.25 21 37 C22.32 37 23.64 37 25 37 C24.67 33.7 24.34 30.4 24 27 C24.99 27 25.98 27 27 27 C27.495 25.515 27.495 25.515 28 24 C27.01 23.67 26.02 23.34 25 23 C24.05078125 21.15234375 24.05078125 21.15234375 23.3125 18.9375 C23.06113281 18.20402344 22.80976563 17.47054688 22.55078125 16.71484375 C22.36902344 16.14894531 22.18726563 15.58304687 22 15 C22.99 15 23.98 15 25 15 C24.505 13.515 24.505 13.515 24 12 C22.35 12 20.7 12 19 12 C17.02 8.535 17.02 8.535 15 5 C14.443125 5.350625 13.88625 5.70125 13.3125 6.0625 C10.46113217 7.21845993 8.91482778 6.80967438 6 6 C6 5.01 6 4.02 6 3 C4.68 3 3.36 3 2 3 Z " fill="#5E707A" transform="translate(405,242)"/>
<path d="M0 0 C5.10863896 -0.0246501 10.21724359 -0.04283607 15.32592773 -0.05493164 C17.06519168 -0.05997204 18.80445136 -0.0668043 20.54370117 -0.07543945 C23.03825937 -0.08751792 25.53276173 -0.09323108 28.02734375 -0.09765625 C28.80963852 -0.10281754 29.59193329 -0.10797882 30.39793396 -0.11329651 C32.26567114 -0.11349226 34.13329204 -0.06199694 36 0 C38.04266429 2.04266429 37.18507944 6.13691434 37.1875 8.9375 C37.19974609 9.67935547 37.21199219 10.42121094 37.22460938 11.18554688 C37.22988478 13.12513629 37.12188902 15.0642371 37 17 C34.51149326 19.48850674 33.0378994 19.2461233 29.64086914 19.27789307 C28.55020142 19.27182037 28.55020142 19.27182037 27.4375 19.265625 C26.31686157 19.26849518 26.31686157 19.26849518 25.17358398 19.27142334 C23.59325829 19.27278498 22.01292142 19.26909 20.43261719 19.26074219 C18.00951078 19.250042 15.58714577 19.26063779 13.1640625 19.2734375 C11.63020669 19.2721159 10.09635135 19.2695535 8.5625 19.265625 C7.83538818 19.26967346 7.10827637 19.27372192 6.35913086 19.27789307 C1.22992361 19.22992361 1.22992361 19.22992361 -1 17 C-1.17201285 14.45770841 -1.23257617 12.03850004 -1.1875 9.5 C-1.18685547 8.81035156 -1.18621094 8.12070312 -1.18554688 7.41015625 C-1.14055525 2.28111049 -1.14055525 2.28111049 0 0 Z " fill="#35505E" transform="translate(156,300)"/>
<path d="M0 0 C1.47583955 0.0001591 2.95168467 0.00585225 4.42749023 0.01586914 C5.20293686 0.01728409 5.97838348 0.01869904 6.77732849 0.02015686 C9.26361893 0.02577194 11.74982059 0.03832693 14.23608398 0.05102539 C15.91772331 0.05603845 17.59936405 0.06060169 19.28100586 0.06469727 C23.41189965 0.07574626 27.54272674 0.09302094 31.67358398 0.11352539 C33.53304127 4.38214514 33.79910876 7.19829763 33.36108398 11.86352539 C33.26182617 13.01336914 33.16256836 14.16321289 33.06030273 15.34790039 C32.67358398 18.11352539 32.67358398 18.11352539 31.67358398 19.11352539 C29.09168952 19.21444014 26.53711898 19.25324038 23.95483398 19.24633789 C22.79522156 19.24777298 22.79522156 19.24777298 21.61218262 19.24923706 C19.97460855 19.2499188 18.33703179 19.24806496 16.69946289 19.24389648 C14.18426478 19.2385481 11.66924525 19.24384165 9.15405273 19.25024414 C7.56681275 19.24958336 5.97957289 19.24830219 4.39233398 19.24633789 C3.63505005 19.24836212 2.87776611 19.25038635 2.09753418 19.25247192 C-3.2114647 19.22847671 -3.2114647 19.22847671 -4.32641602 18.11352539 C-4.42628576 15.27017491 -4.46519483 12.45655376 -4.45141602 9.61352539 C-4.4552832 8.8155957 -4.45915039 8.01766602 -4.46313477 7.19555664 C-4.45117612 0.1519117 -4.45117612 0.1519117 0 0 Z " fill="#324C5A" transform="translate(583.326416015625,299.886474609375)"/>
<path d="M0 0 C1.32 0.66 2.64 1.32 4 2 C4 10.91 4 19.82 4 29 C2.35 29.33 0.7 29.66 -1 30 C-1.33 25.05 -1.66 20.1 -2 15 C-4.31 19.95 -6.62 24.9 -9 30 C-14 29 -14 29 -15.80078125 26.3828125 C-16.29964844 25.30773437 -16.79851562 24.23265625 -17.3125 23.125 C-17.82425781 22.05507813 -18.33601563 20.98515625 -18.86328125 19.8828125 C-20 17 -20 17 -20 14 C-20.78395368 17.60355181 -21.25266314 21.13872012 -21.5625 24.8125 C-21.64628906 25.78832031 -21.73007812 26.76414062 -21.81640625 27.76953125 C-21.87699219 28.50558594 -21.93757813 29.24164063 -22 30 C-22.99 30.33 -23.98 30.66 -25 31 C-27 29 -27 29 -27.22705078 26.20263672 C-27.21134033 24.45877686 -27.21134033 24.45877686 -27.1953125 22.6796875 C-27.18886719 21.42285156 -27.18242187 20.16601562 -27.17578125 18.87109375 C-27.15902344 17.55238281 -27.14226562 16.23367188 -27.125 14.875 C-27.11496983 13.53516279 -27.10584404 12.19531848 -27.09765625 10.85546875 C-27.07402075 7.57013427 -27.04107234 4.28515535 -27 1 C-25.02 1 -23.04 1 -21 1 C-18.03 7.27 -15.06 13.54 -12 20 C-9.91306599 17.21742132 -8.57837089 15.38735175 -7.24609375 12.36328125 C-6.94896484 11.70392578 -6.65183594 11.04457031 -6.34570312 10.36523438 C-5.7352587 8.9854987 -5.12590064 7.60528191 -4.51757812 6.22460938 C-2.20607143 1.10303571 -2.20607143 1.10303571 0 0 Z " fill="#405965" transform="translate(292,383)"/>
<path d="M0 0 C2.74222499 1.07555298 3.63129938 2.44713311 5.31152344 4.84985352 C6.17197266 6.06318359 6.17197266 6.06318359 7.04980469 7.30102539 C7.92958984 8.57623047 7.92958984 8.57623047 8.82714844 9.87719727 C9.42914062 10.73120117 10.03113281 11.58520508 10.65136719 12.46508789 C12.13640087 14.57477859 13.60806568 16.69386825 15.07714844 18.81469727 C15.73714844 12.87469727 16.39714844 6.93469727 17.07714844 0.81469727 C18.06714844 0.48469727 19.05714844 0.15469727 20.07714844 -0.18530273 C20.73714844 0.14469727 21.39714844 0.47469727 22.07714844 0.81469727 C22.10180725 4.78400716 22.11998867 8.75328761 22.13208008 12.72265625 C22.137119 14.07390113 22.14395021 15.42514052 22.15258789 16.77636719 C22.16467263 18.71490161 22.16984672 20.65347527 22.17480469 22.59204102 C22.18265991 24.3437561 22.18265991 24.3437561 22.19067383 26.13085938 C22.07714844 28.81469727 22.07714844 28.81469727 21.07714844 29.81469727 C18.73657227 30.13696289 18.73657227 30.13696289 16.07714844 29.81469727 C14.22436523 28.07055664 14.22436523 28.07055664 12.52636719 25.65844727 C11.60307617 24.37260742 11.60307617 24.37260742 10.66113281 23.06079102 C10.03529297 22.15458008 9.40945313 21.24836914 8.76464844 20.31469727 C8.11947266 19.40848633 7.47429688 18.50227539 6.80957031 17.56860352 C5.21735264 15.32770458 3.64530319 13.07250059 2.07714844 10.81469727 C1.74714844 17.08469727 1.41714844 23.35469727 1.07714844 29.81469727 C-0.57285156 29.48469727 -2.22285156 29.15469727 -3.92285156 28.81469727 C-3.92285156 19.57469727 -3.92285156 10.33469727 -3.92285156 0.81469727 C-1.92285156 -0.18530273 -1.92285156 -0.18530273 0 0 Z " fill="#415B68" transform="translate(548.9228515625,383.185302734375)"/>
<path d="M0 0 C3.67189003 2.20870804 6.26352973 4.75120258 8.4375 8.4375 C9.4574184 13.08379494 9.48303111 16.70344282 7.8125 21.1875 C5.47953993 24.80761046 2.84455245 27.07772378 -1 29 C-6.17612405 29.51592086 -10.63098164 29.59738983 -15.4375 27.5 C-19.2626272 23.76816858 -21.73584161 20.12235214 -22.1953125 14.69140625 C-21.87528302 9.10971554 -20.20640116 5.84062714 -16 2 C-10.6309164 -1.20079984 -5.92068055 -1.89002324 0 0 Z M-14 7 C-16.6803257 11.02048854 -16.80395376 14.27573564 -16 19 C-13.6066679 22.37882179 -11.96721278 23.67073608 -8.0625 25 C-4.18954927 25 -2.21402838 24.14268559 1 22 C3.04231601 19.69415934 3.94559305 18.13801202 4.09375 15.0390625 C3.83892167 11.61162149 3.29783393 9.4467509 1.375 6.5625 C-4.10249064 2.95888774 -8.65697566 3.52082136 -14 7 Z " fill="#425966" transform="translate(223,384)"/>
<path d="M0 0 C4.03700642 2.33643595 7.24706887 4.52379955 8.8203125 9.046875 C9.63481728 13.92621967 9.95171599 18.14913421 7.35546875 22.50390625 C4.08669042 26.33936497 1.76060084 28.73817003 -3.44921875 29.28515625 C-9.24060005 29.45418274 -12.69926072 29.10059447 -17.1796875 25.046875 C-21.11485581 20.69747845 -21.8231336 17.12865245 -21.55859375 11.4453125 C-20.87603825 7.12480653 -18.99748936 4.51952461 -15.63671875 1.796875 C-10.66982775 -1.47649939 -5.53078621 -2.41847999 0 0 Z M-15.1796875 8.046875 C-16.79957549 11.28665098 -16.74489117 14.5452109 -16.1796875 18.046875 C-14.83928131 20.85391396 -13.63223289 21.90742051 -11.1796875 24.046875 C-7.24685573 25.24077036 -5.21714878 25.49486964 -1.4296875 23.859375 C2.23139584 20.91016898 3.6722073 19.40450599 4.1953125 14.609375 C3.79664107 10.82199639 3.1825576 8.99968137 0.8203125 6.046875 C-4.90515711 1.90084528 -10.08231097 4.01639123 -15.1796875 8.046875 Z " fill="#3D5662" transform="translate(502.1796875,383.953125)"/>
<path d="M0 0 C0.66 0 1.32 0 2 0 C2 23.43 2 46.86 2 71 C10.91 71 19.82 71 29 71 C29 65.06 29 59.12 29 53 C22.07 53 15.14 53 8 53 C8 35.51 8 18.02 8 0 C8.99 0 9.98 0 11 0 C10.67 16.83 10.34 33.66 10 51 C16.93 51 23.86 51 31 51 C31.020625 54.444375 31.04125 57.88875 31.0625 61.4375 C31.071604 62.52474365 31.08070801 63.6119873 31.09008789 64.73217773 C31.09258545 65.58239502 31.09508301 66.4326123 31.09765625 67.30859375 C31.10551147 68.62041626 31.10551147 68.62041626 31.11352539 69.95874023 C31 72 31 72 30 73 C20.1 73 10.2 73 0 73 C0 48.91 0 24.82 0 0 Z " fill="#455762" transform="translate(404,287)"/>
<path d="M0 0 C0.99 0.33 1.98 0.66 3 1 C3.01981934 1.59014893 3.03963867 2.18029785 3.06005859 2.78833008 C3.15534659 5.46350096 3.26500939 8.13789498 3.375 10.8125 C3.4059375 11.74126953 3.436875 12.67003906 3.46875 13.62695312 C3.50742188 14.51962891 3.54609375 15.41230469 3.5859375 16.33203125 C3.6173584 17.15421143 3.6487793 17.9763916 3.68115234 18.82348633 C3.88373622 21.28952937 3.88373622 21.28952937 6 24 C8.63830594 25.27366494 9.78250966 25.06932094 12.5859375 24.17578125 C15.459084 21.58623012 15.41454395 20.84565129 15.70703125 17.11328125 C15.76681442 15.18029219 15.80101161 13.2463792 15.8125 11.3125 C15.83763672 10.32443359 15.86277344 9.33636719 15.88867188 8.31835938 C15.94760552 5.87850664 15.98383808 3.44045005 16 1 C17.9375 0.4375 17.9375 0.4375 20 0 C22.40723994 2.40723994 21.23364138 8.51917179 21.25 11.75 C21.270625 12.75289063 21.29125 13.75578125 21.3125 14.7890625 C21.36208151 24.13517733 21.36208151 24.13517733 18 28 C13.7567553 30.8288298 9.98265471 30.65268001 5 30 C1.35174297 27.87185006 -0.42170718 25.86190968 -2 22 C-2.22705078 19.61816406 -2.22705078 19.61816406 -2.1953125 17.015625 C-2.18886719 16.08105469 -2.18242188 15.14648438 -2.17578125 14.18359375 C-2.15902344 13.21550781 -2.14226562 12.24742187 -2.125 11.25 C-2.11597656 10.26644531 -2.10695313 9.28289062 -2.09765625 8.26953125 C-2.07412785 5.84610593 -2.04125368 3.42317778 -2 1 C-1.34 0.67 -0.68 0.34 0 0 Z " fill="#485E6A" transform="translate(93,383)"/>
<path d="M0 0 C1.16015625 0.10054688 1.16015625 0.10054688 2.34375 0.203125 C4.92157484 0.85692116 5.92255408 1.6265151 7.5 3.75 C7.5 4.74 7.5 5.73 7.5 6.75 C6.51 7.08 5.52 7.41 4.5 7.75 C3.51 7.09 2.52 6.43 1.5 5.75 C-1.62521833 5.58300768 -1.62521833 5.58300768 -4.5 5.75 C-4.83 7.4 -5.16 9.05 -5.5 10.75 C-4.74074219 11.00394531 -3.98148438 11.25789063 -3.19921875 11.51953125 C-2.20535156 11.86371094 -1.21148438 12.20789063 -0.1875 12.5625 C1.29169922 13.06716797 1.29169922 13.06716797 2.80078125 13.58203125 C5.41420966 14.71287798 6.81051479 15.48799821 8.5 17.75 C9.1445871 22.1009629 9.02527818 24.01779405 6.4375 27.625 C2.88250073 30.1967016 0.88001996 30.75 -3.5 30.75 C-9.82273263 28.78062426 -9.82273263 28.78062426 -11.9375 25.5625 C-12.123125 24.964375 -12.30875 24.36625 -12.5 23.75 C-10.6875 23.125 -10.6875 23.125 -8.5 22.75 C-7.51 23.41 -6.52 24.07 -5.5 24.75 C-1.35223727 25.03662433 -1.35223727 25.03662433 2.5 23.75 C2.17 22.1 1.84 20.45 1.5 18.75 C0.81292969 18.57984375 0.12585938 18.4096875 -0.58203125 18.234375 C-1.48308594 17.99203125 -2.38414062 17.7496875 -3.3125 17.5 C-4.20582031 17.26796875 -5.09914063 17.0359375 -6.01953125 16.796875 C-8.93690553 15.56560522 -9.94322746 14.4794064 -11.5 11.75 C-12.00476386 7.71188909 -12.19368631 5.65896826 -9.6875 2.375 C-6.37411658 -0.08637054 -3.98660631 -0.39866063 0 0 Z " fill="#3C5766" transform="translate(617.5,383.25)"/>
<path d="M0 0 C1.95019531 0.03588867 1.95019531 0.03588867 4 1 C5.46386719 3.3449707 5.46386719 3.3449707 6.796875 6.42578125 C7.28027344 7.53244141 7.76367188 8.63910156 8.26171875 9.77929688 C8.75285156 10.94525391 9.24398438 12.11121094 9.75 13.3125 C10.25660156 14.46685547 10.76320313 15.62121094 11.28515625 16.81054688 C15 25.43679456 15 25.43679456 15 30 C12.76953125 30.0234375 12.76953125 30.0234375 10 29 C8.14414973 26.40134196 6.94658789 23.54933318 5.6875 20.625 C5.14899414 19.45324219 5.14899414 19.45324219 4.59960938 18.2578125 C2 12.4743006 2 12.4743006 2 9 C1.34 9 0.68 9 0 9 C-0.15855469 9.59425781 -0.31710937 10.18851562 -0.48046875 10.80078125 C-2.37328222 17.52497495 -4.97477228 23.71039612 -8 30 C-9.65 30 -11.3 30 -13 30 C-12.37204819 26.24967338 -11.29649739 23.03594545 -9.78515625 19.55078125 C-9.34623047 18.53822266 -8.90730469 17.52566406 -8.45507812 16.48242188 C-7.99552734 15.43634766 -7.53597656 14.39027344 -7.0625 13.3125 C-6.60681641 12.25482422 -6.15113281 11.19714844 -5.68164062 10.10742188 C-2.25442 2.25442 -2.25442 2.25442 0 0 Z " fill="#3E5865" transform="translate(341,383)"/>
<path d="M0 0 C3.38486919 0.93021484 4.71876408 1.54423061 6.59326172 4.58203125 C7.25479248 6.18111328 7.25479248 6.18111328 7.9296875 7.8125 C8.65671875 9.54886719 8.65671875 9.54886719 9.3984375 11.3203125 C10.12933594 13.14175781 10.12933594 13.14175781 10.875 15 C11.38546875 16.21429688 11.8959375 17.42859375 12.421875 18.6796875 C15.13308888 25.25987685 15.13308888 25.25987685 16 28 C15.67 28.66 15.34 29.32 15 30 C12.63989258 29.76586914 12.63989258 29.76586914 10 29 C8.69799805 27.14233398 8.69799805 27.14233398 7.76171875 24.74609375 C7.41689453 23.89208984 7.07207031 23.03808594 6.71679688 22.15820312 C6.20729492 20.81145508 6.20729492 20.81145508 5.6875 19.4375 C5.32849609 18.53580078 4.96949219 17.63410156 4.59960938 16.70507812 C3.71520474 14.47637844 2.84976878 12.24208468 2 10 C1.44570313 11.10859375 0.89140625 12.2171875 0.3203125 13.359375 C-2.453125 18.90625 -5.2265625 24.453125 -8 30 C-9.65 30 -11.3 30 -13 30 C-12.37134585 26.10198909 -11.18414145 22.87655884 -9.53125 19.296875 C-9.04269531 18.2346875 -8.55414063 17.1725 -8.05078125 16.078125 C-7.28314453 14.43070312 -7.28314453 14.43070312 -6.5 12.75 C-5.98824219 11.63625 -5.47648437 10.5225 -4.94921875 9.375 C-1.14565618 1.14565618 -1.14565618 1.14565618 0 0 Z " fill="#3E5966" transform="translate(42,383)"/>
<path d="M0 0 C4.79694006 2.57498081 7.60303903 5.94382174 10.2421875 10.59375 C11.55991581 15.74486975 10.64236196 19.82739411 8.3671875 24.46875 C4.90273791 28.46619184 1.1527982 31.64145649 -4.15625 32.6953125 C-8.8474672 32.89302663 -12.22143207 31.87506072 -16.0703125 29.28125 C-20.33256896 24.96908421 -23.20442881 21.727736 -23.3828125 15.53125 C-23.32123047 9.42583138 -20.99277175 6.43673461 -17.0078125 1.96875 C-12.59036302 -1.878706 -5.37794361 -1.86705967 0 0 Z M-18.0703125 7.28125 C-20.6243961 11.538056 -20.60852794 15.437311 -20.0703125 20.28125 C-18.47714161 24.49846705 -15.96603495 26.48249164 -11.96484375 28.5546875 C-7.62176949 30.22027887 -4.13998649 29.679756 0.1171875 28.09375 C3.88882585 25.66313862 6.26803045 23.59064655 7.53515625 19.16796875 C8.26030367 14.89606067 8.21874005 12.83870849 6.1796875 8.90625 C1.92928048 3.80920085 1.92928048 3.80920085 -4.33984375 2.0078125 C-10.80790684 1.7494874 -13.67613967 2.44765989 -18.0703125 7.28125 Z " fill="#4C646E" transform="translate(416.0703125,251.71875)"/>
<path d="M0 0 C7.26 0 14.52 0 22 0 C22.33 1.65 22.66 3.3 23 5 C19.7 5 16.4 5 13 5 C13 13.25 13 21.5 13 30 C12.01 30.33 11.02 30.66 10 31 C9.34 30.67 8.68 30.34 8 30 C8 21.75 8 13.5 8 5 C5.03 5 2.06 5 -1 5 C-0.67 3.35 -0.34 1.7 0 0 Z " fill="#4C626D" transform="translate(149,383)"/>
<path d="M0 0 C0.94101562 0.00322266 1.88203125 0.00644531 2.8515625 0.00976562 C3.83640625 0.01814453 4.82125 0.02652344 5.8359375 0.03515625 C6.82851563 0.03966797 7.82109375 0.04417969 8.84375 0.04882812 C11.2995391 0.0606348 13.75520854 0.07710225 16.2109375 0.09765625 C16.8709375 1.41765625 17.5309375 2.73765625 18.2109375 4.09765625 C17.8809375 4.42765625 17.5509375 4.75765625 17.2109375 5.09765625 C14.2409375 5.09765625 11.2709375 5.09765625 8.2109375 5.09765625 C8.2109375 13.34765625 8.2109375 21.59765625 8.2109375 30.09765625 C6.5609375 30.09765625 4.9109375 30.09765625 3.2109375 30.09765625 C3.2109375 21.84765625 3.2109375 13.59765625 3.2109375 5.09765625 C0.2409375 5.09765625 -2.7290625 5.09765625 -5.7890625 5.09765625 C-6.1190625 3.77765625 -6.4490625 2.45765625 -6.7890625 1.09765625 C-4.33631109 -0.12871945 -2.7384844 -0.01649689 0 0 Z " fill="#4C626D" transform="translate(392.7890625,382.90234375)"/>
<path d="M0 0 C1.98 0.495 1.98 0.495 4 1 C4 10.24 4 19.48 4 29 C2.35 29.33 0.7 29.66 -1 30 C-1.02465746 25.8882744 -1.04283959 21.77657722 -1.05493164 17.66479492 C-1.0599708 16.26504772 -1.06680216 14.8653058 -1.07543945 13.46557617 C-1.0875232 11.45754223 -1.09269807 9.44947043 -1.09765625 7.44140625 C-1.10289307 6.23170166 -1.10812988 5.02199707 -1.11352539 3.77563477 C-1 1 -1 1 0 0 Z " fill="#405A68" transform="translate(444,383)"/>
<path d="M0 0 C4.95 0 9.9 0 15 0 C15 2.64 15 5.28 15 8 C12.68756208 8.02685412 10.3750373 8.04632841 8.0625 8.0625 C6.77472656 8.07410156 5.48695313 8.08570313 4.16015625 8.09765625 C1 8 1 8 0 7 C0 4.69 0 2.38 0 0 Z M3 3 C3 3.66 3 4.32 3 5 C5.97 5 8.94 5 12 5 C12 4.34 12 3.68 12 3 C9.03 3 6.06 3 3 3 Z " fill="#55636F" transform="translate(412,345)"/>
<path d="M0 0 C1.32 0.33 2.64 0.66 4 1 C4 8.26 4 15.52 4 23 C3.01 23.33 2.02 23.66 1 24 C0.01956036 21.05868109 -0.11621202 19.17498335 -0.09765625 16.11328125 C-0.09443359 15.17548828 -0.09121094 14.23769531 -0.08789062 13.27148438 C-0.07532227 11.80678711 -0.07532227 11.80678711 -0.0625 10.3125 C-0.05798828 9.32443359 -0.05347656 8.33636719 -0.04882812 7.31835938 C-0.03704303 4.87884526 -0.02059011 2.43945311 0 0 Z " fill="#334F5E" transform="translate(110,383)"/>
<path d="M0 0 C2.86029845 3.09199861 4.37587674 6.43612854 4.421875 10.66796875 C4.08954847 14.06508436 3.85724481 16.05291144 1.3984375 18.51171875 C0.74168974 15.72054078 0.40218419 13.45302064 0.5859375 10.57421875 C0.33669817 6.50330972 -1.03264594 4.63607673 -3.6015625 1.51171875 C-7.81693495 -1.98101842 -12.32690799 -2.15502421 -17.6015625 -2.48828125 C-17.6015625 -2.81828125 -17.6015625 -3.14828125 -17.6015625 -3.48828125 C-16.18612835 -3.68486933 -14.76912219 -3.87015671 -13.3515625 -4.05078125 C-12.56265625 -4.15519531 -11.77375 -4.25960937 -10.9609375 -4.3671875 C-6.25881413 -4.60852165 -3.53945501 -3.13520253 0 0 Z " fill="#49636F" transform="translate(422.6015625,256.48828125)"/>
<path d="M0 0 C0.9075 0.0825 1.815 0.165 2.75 0.25 C2.75 0.58 2.75 0.91 2.75 1.25 C1.1 1.25 -0.55 1.25 -2.25 1.25 C-2.25 2.9 -2.25 4.55 -2.25 6.25 C-4.56 6.25 -6.87 6.25 -9.25 6.25 C-9.25 5.59 -9.25 4.93 -9.25 4.25 C-9.91 4.91 -10.57 5.57 -11.25 6.25 C-10.92 7.24 -10.59 8.23 -10.25 9.25 C-12.0625 11.25 -12.0625 11.25 -14.25 13.25 C-15.24 13.25 -16.23 13.25 -17.25 13.25 C-17.58 11.93 -17.91 10.61 -18.25 9.25 C-16.93 8.92 -15.61 8.59 -14.25 8.25 C-14.0953125 7.074375 -14.0953125 7.074375 -13.9375 5.875 C-13.25 3.25 -13.25 3.25 -10.25 1.25 C-9.26 1.25 -8.27 1.25 -7.25 1.25 C-7.25 2.24 -7.25 3.23 -7.25 4.25 C-6.71375 3.59 -6.1775 2.93 -5.625 2.25 C-3.25 0.25 -3.25 0.25 0 0 Z " fill="#53656D" transform="translate(408.25,242.75)"/>
<path d="M0 0 C0.99 0.33 1.98 0.66 3 1 C3 8.92 3 16.84 3 25 C2.01 25 1.02 25 0 25 C0 16.75 0 8.5 0 0 Z " fill="#334D5B" transform="translate(397,388)"/>
<path d="M0 0 C0.90105469 0.00902344 1.80210937 0.01804688 2.73046875 0.02734375 C3.41753906 0.03894531 4.10460937 0.05054688 4.8125 0.0625 C4.8125 0.7225 4.8125 1.3825 4.8125 2.0625 C4.23242188 2.07667969 3.65234375 2.09085938 3.0546875 2.10546875 C-3.07521241 2.47973657 -5.93146321 3.60379479 -10.1875 8.0625 C-13.12155227 11.90712021 -13.71921668 15.2860101 -14.1875 20.0625 C-14.5175 20.0625 -14.8475 20.0625 -15.1875 20.0625 C-16.25140987 10.87572273 -16.25140987 10.87572273 -13.734375 6.5859375 C-9.45154184 1.63728574 -6.63705078 -0.08619546 0 0 Z " fill="#495761" transform="translate(409.1875,250.9375)"/>
<path d="M0 0 C0.99 0 1.98 0 3 0 C2.67 11.55 2.34 23.1 2 35 C1.67 35 1.34 35 1 35 C0.25265639 30.34785065 -0.11936092 25.90132058 -0.09765625 21.19140625 C-0.09443359 19.95068359 -0.09121094 18.70996094 -0.08789062 17.43164062 C-0.07951172 16.15482422 -0.07113281 14.87800781 -0.0625 13.5625 C-0.05798828 12.25861328 -0.05347656 10.95472656 -0.04882812 9.61132812 C-0.03709251 6.40750448 -0.02067363 3.20377637 0 0 Z " fill="#3A525D" transform="translate(412,287)"/>
<path d="M0 0 C0.33 0 0.66 0 1 0 C1.33 7.59 1.66 15.18 2 23 C2.66 23.33 3.32 23.66 4 24 C2.25 26 2.25 26 0 28 C-1.32 28 -2.64 28 -4 28 C-4 27.01 -4 26.02 -4 25 C-4.66 24.67 -5.32 24.34 -6 24 C-4.78763672 23.58814453 -4.78763672 23.58814453 -3.55078125 23.16796875 C-0.83555538 21.29853961 -0.83555538 21.29853961 -0.49365234 18.78369141 C-0.28087428 15.9523454 -0.20436688 13.15175804 -0.1875 10.3125 C-0.16236328 9.32443359 -0.13722656 8.33636719 -0.11132812 7.31835938 C-0.05239448 4.87850664 -0.01616192 2.44045005 0 0 Z " fill="#536873" transform="translate(109,384)"/>
<path d="M0 0 C3.375 4.5 3.375 4.5 3.29296875 8.765625 C3.28330078 9.65507812 3.27363281 10.54453125 3.26367188 11.4609375 C3.23853516 12.38132812 3.21339844 13.30171875 3.1875 14.25 C3.16719727 15.65378906 3.16719727 15.65378906 3.14648438 17.0859375 C3.11119954 19.39121327 3.06190281 21.6953106 3 24 C2.01 24 1.02 24 0 24 C0 16.08 0 8.16 0 0 Z " fill="#2E4C59" transform="translate(158,388)"/>
<path d="M0 0 C1.32 0.66 2.64 1.32 4 2 C3.360625 2.391875 2.72125 2.78375 2.0625 3.1875 C-0.47551113 5.41787342 -0.41914757 6.76382216 -1 10 C-4 12 -4 12 -8 12 C-8 11.34 -8 10.68 -8 10 C-10.97 9.505 -10.97 9.505 -14 9 C-10.53097345 6.89380531 -10.53097345 6.89380531 -7.8125 7.4375 C-7.214375 7.623125 -6.61625 7.80875 -6 8 C-4.85582715 6.9697415 -4.85582715 6.9697415 -4.125 5.125 C-2.98882805 2.97889742 -1.78531011 1.62300919 0 0 Z " fill="#516773" transform="translate(426,278)"/>
<path d="M0 0 C0.75 1.75 0.75 1.75 1 4 C-1.21867135 6.77333918 -2.60620325 7.86873442 -6 9 C-7.66267874 9.14220279 -9.3315173 9.22020567 -11 9.25 C-12.299375 9.28867187 -12.299375 9.28867187 -13.625 9.328125 C-16.42903194 8.94072585 -17.26286782 8.17141522 -19 6 C-15.0186217 4.6728739 -11.14954773 4.93084087 -7 5 C-7 5.66 -7 6.32 -7 7 C-6.34 7 -5.68 7 -5 7 C-4.731875 6.401875 -4.46375 5.80375 -4.1875 5.1875 C-3.01506533 3.02775192 -1.80630718 1.64209744 0 0 Z " fill="#344F5D" transform="translate(507,404)"/>
<path d="M0 0 C0.33 0 0.66 0 1 0 C1.268125 1.258125 1.53625 2.51625 1.8125 3.8125 C3.04838691 8.74734422 4.79952079 10.19968053 9 13 C8.67 13.66 8.34 14.32 8 15 C5.3125 15.375 5.3125 15.375 2 15 C-1.96605744 11.84334204 -1.96605744 11.84334204 -3 9 C-2.51437943 5.75373206 -1.39952583 2.95674472 0 0 Z " fill="#455D68" transform="translate(485,396)"/>
<path d="M0 0 C0.99 0 1.98 0 3 0 C3.05407567 2.58361518 3.093707 5.16609255 3.125 7.75 C3.14175781 8.47960937 3.15851563 9.20921875 3.17578125 9.9609375 C3.21072239 13.8044624 3.17499684 16.74606772 1 20 C0.67 20 0.34 20 0 20 C0 13.4 0 6.8 0 0 Z " fill="#2E4957" transform="translate(92,385)"/>
<path d="M0 0 C0.33 0 0.66 0 1 0 C1 1.65 1 3.3 1 5 C2.32 5 3.64 5 5 5 C4.625 7.4375 4.625 7.4375 4 10 C3.01 10.495 3.01 10.495 2 11 C1.67 10.34 1.34 9.68 1 9 C0.236875 9.969375 -0.52625 10.93875 -1.3125 11.9375 C-3.26748815 14.42086332 -3.85650159 14.9521672 -7 16 C-7.33 14.68 -7.66 13.36 -8 12 C-7.21625 11.566875 -6.4325 11.13375 -5.625 10.6875 C-2.78301625 9.10779753 -2.78301625 9.10779753 -1 6 C-0.60986284 4.0103005 -0.26797351 2.00980131 0 0 Z " fill="#475F6B" transform="translate(506,396)"/>
<path d="M0 0 C2 2 2 2 2 5 C1.01 5.33 0.02 5.66 -1 6 C-1.99 5.34 -2.98 4.68 -4 4 C-6.32387947 3.60612212 -8.65793749 3.26513915 -11 3 C-10.67 2.01 -10.34 1.02 -10 0 C-3.42391304 -1.3451087 -3.42391304 -1.3451087 0 0 Z " fill="#395462" transform="translate(623,385)"/>
<path d="M0 0 C1.9375 0.75 1.9375 0.75 4 2 C4.75 4.125 4.75 4.125 5 6 C6.65 5.67 8.3 5.34 10 5 C10.33 5.99 10.66 6.98 11 8 C9.68 8 8.36 8 7 8 C7 8.66 7 9.32 7 10 C5.35 9.67 3.7 9.34 2 9 C0 3.375 0 3.375 0 0 Z " fill="#4A616E" transform="translate(393,280)"/>
<path d="M0 0 C3 2 3 2 3.6953125 4.27734375 C3.90800781 5.59412109 3.90800781 5.59412109 4.125 6.9375 C4.59984732 9.76575729 5.09004937 12.2701481 6 15 C6.99 15.33 7.98 15.66 9 16 C9 16.66 9 17.32 9 18 C5.82966958 17.66032174 5.00117393 17.00130809 2.8125 14.5625 C0.26533804 10.96133999 -0.11845269 9.23930986 -0.0625 4.875 C-0.05347656 3.96492188 -0.04445313 3.05484375 -0.03515625 2.1171875 C-0.02355469 1.41851562 -0.01195312 0.71984375 0 0 Z " fill="#5B6A70" transform="translate(393,262)"/>
<path d="M0 0 C3.37559685 0.58199946 4.62752283 1.62752283 7 4 C9.59915538 5.19027984 9.59915538 5.19027984 12 6 C11.67 6.66 11.34 7.32 11 8 C9.55989519 7.74337755 8.1229313 7.46909179 6.6875 7.1875 C5.88699219 7.03667969 5.08648438 6.88585937 4.26171875 6.73046875 C1.76554413 5.92427764 0.67577894 4.97947998 -1 3 C-0.67 2.01 -0.34 1.02 0 0 Z " fill="#3B5868" transform="translate(606,406)"/>
<path d="M0 0 C0.66 0 1.32 0 2 0 C2 0.66 2 1.32 2 2 C2.5775 1.79375 3.155 1.5875 3.75 1.375 C6.51967567 0.91338739 7.64561267 1.57055055 10 3 C10 5.31 10 7.62 10 10 C9.01 10.495 9.01 10.495 8 11 C7.67 9.68 7.34 8.36 7 7 C6.01 7.495 6.01 7.495 5 8 C4.7525 7.38125 4.505 6.7625 4.25 6.125 C2.79371361 3.64931313 1.62187494 3.04874998 -1 2 C-0.67 1.34 -0.34 0.68 0 0 Z " fill="#405C6B" transform="translate(616,398)"/>
<path d="M0 0 C1.32 1.32 2.64 2.64 4 4 C3.34 5.98 2.68 7.96 2 10 C0.35 10 -1.3 10 -3 10 C-2.39009109 6.44219804 -1.4216319 3.3171411 0 0 Z " fill="#475C67" transform="translate(331,403)"/>
<path d="M0 0 C2.0625 0.4375 2.0625 0.4375 4 1 C3.01 1.33 2.02 1.66 1 2 C1.99 3.485 1.99 3.485 3 5 C2.67873872 7.63434254 2.18644952 9.62710097 1 12 C-0.32 11.67 -1.64 11.34 -3 11 C-2.01 10.67 -1.02 10.34 0 10 C-0.350625 9.2575 -0.70125 8.515 -1.0625 7.75 C-2.04877778 4.85691852 -2.09422236 3.78529329 -1 1 C-0.67 0.67 -0.34 0.34 0 0 Z " fill="#556C76" transform="translate(430,270)"/>
<path d="M0 0 C1.8871875 0.061875 1.8871875 0.061875 3.8125 0.125 C3.8125 0.785 3.8125 1.445 3.8125 2.125 C1.8325 2.125 -0.1475 2.125 -2.1875 2.125 C-2.1875 2.785 -2.1875 3.445 -2.1875 4.125 C-1.1975 4.455 -0.2075 4.785 0.8125 5.125 C-1.4975 5.785 -3.8075 6.445 -6.1875 7.125 C-6.5175 5.475 -6.8475 3.825 -7.1875 2.125 C-4.09861478 0.06574319 -3.47814073 -0.1140374 0 0 Z " fill="#4B616B" transform="translate(496.1875,382.875)"/>
<path d="M0 0 C2.64 0 5.28 0 8 0 C8 0.99 8 1.98 8 3 C8.66 3.33 9.32 3.66 10 4 C6.37 4 2.74 4 -1 4 C-0.67 2.68 -0.34 1.36 0 0 Z " fill="#36515E" transform="translate(212,409)"/>
<path d="M0 0 C2.25 2.0625 2.25 2.0625 4 4 C3.01 4.33 2.02 4.66 1 5 C0.29875 4.54625 -0.4025 4.0925 -1.125 3.625 C-4.99719928 1.43636563 -8.61947334 1.2767653 -13 1 C-13 0.67 -13 0.34 -13 0 C-11.58456585 -0.19658808 -10.16755969 -0.38187546 -8.75 -0.5625 C-7.96109375 -0.66691406 -7.1721875 -0.77132812 -6.359375 -0.87890625 C-3.94514968 -1.00281517 -2.27046422 -0.80813133 0 0 Z " fill="#5A6A74" transform="translate(418,253)"/>
<path d="M0 0 C2.64 0 5.28 0 8 0 C8 1.32 8 2.64 8 4 C8.66 4.33 9.32 4.66 10 5 C10 5.66 10 6.32 10 7 C8.68 6.67 7.36 6.34 6 6 C6 5.01 6 4.02 6 3 C4.68 3 3.36 3 2 3 C1.67 3.99 1.34 4.98 1 6 C0.67 4.02 0.34 2.04 0 0 Z " fill="#647378" transform="translate(405,242)"/>
<path d="M0 0 C1.32 0.66 2.64 1.32 4 2 C1.75 4.5 1.75 4.5 -1 7 C-2.32 7 -3.64 7 -5 7 C-3.70700306 4.11562221 -2.34058637 2.12780579 0 0 Z " fill="#61757F" transform="translate(426,278)"/>
<path d="M0 0 C0.66 1.32 1.32 2.64 2 4 C1.34 4 0.68 4 0 4 C0.33 5.32 0.66 6.64 1 8 C0.01 8.33 -0.98 8.66 -2 9 C-2.66 8.67 -3.32 8.34 -4 8 C-2.25 2.25 -2.25 2.25 0 0 Z " fill="#5D6F74" transform="translate(389,251)"/>
<path d="M0 0 C2.3828125 -0.29296875 2.3828125 -0.29296875 5.125 -0.1875 C6.03507812 -0.16042969 6.94515625 -0.13335937 7.8828125 -0.10546875 C8.58148438 -0.07066406 9.28015625 -0.03585938 10 0 C10 0.66 10 1.32 10 2 C4.06 2.495 4.06 2.495 -2 3 C-1.34 2.01 -0.68 1.02 0 0 Z " fill="#42515C" transform="translate(404,251)"/>
<path d="M0 0 C1.98 0 3.96 0 6 0 C6 0.33 6 0.66 6 1 C4.35 1 2.7 1 1 1 C1 2.65 1 4.3 1 6 C-0.98 6 -2.96 6 -5 6 C-5 5.34 -5 4.68 -5 4 C-4.360625 3.71125 -3.72125 3.4225 -3.0625 3.125 C-0.84793921 2.17176549 -0.84793921 2.17176549 0 0 Z " fill="#41535B" transform="translate(405,243)"/>
<path d="M0 0 C1.65 0.33 3.3 0.66 5 1 C5 1.66 5 2.32 5 3 C3.68 3 2.36 3 1 3 C1 3.66 1 4.32 1 5 C-0.32 4.67 -1.64 4.34 -3 4 C-2.01 3.67 -1.02 3.34 0 3 C0 2.01 0 1.02 0 0 Z " fill="#455763" transform="translate(399,285)"/>
<path d="M0 0 C5.75 0.75 5.75 0.75 8 3 C4.94736336 3.98120464 3.05263664 3.98120464 0 3 C0 2.01 0 1.02 0 0 Z " fill="#435F6D" transform="translate(610,410)"/>
<path d="M0 0 C1.65 0.33 3.3 0.66 5 1 C4.34 2.32 3.68 3.64 3 5 C2.67 4.34 2.34 3.68 2 3 C1.01 4.485 1.01 4.485 0 6 C-0.66 6 -1.32 6 -2 6 C-1.34 4.02 -0.68 2.04 0 0 Z " fill="#48606C" transform="translate(36,395)"/>
<path d="M0 0 C1.46132217 2.92264434 2.34099246 4.92463146 3 8 C2.01 7.67 1.02 7.34 0 7 C-0.33 7.66 -0.66 8.32 -1 9 C-1.66 9 -2.32 9 -3 9 C-2.01 6.03 -1.02 3.06 0 0 Z " fill="#495F6A" transform="translate(337,389)"/>
<path d="M0 0 C0.66 0 1.32 0 2 0 C1.125 4.75 1.125 4.75 0 7 C-1.32 6.67 -2.64 6.34 -4 6 C-3.01 5.67 -2.02 5.34 -1 5 C-0.67 3.35 -0.34 1.7 0 0 Z " fill="#3F5564" transform="translate(431,275)"/>
<path d="M0 0 C0.33 0.99 0.66 1.98 1 3 C2.32 2.67 3.64 2.34 5 2 C4.67 2.99 4.34 3.98 4 5 C1.9375 5.6875 1.9375 5.6875 0 6 C-1.125 2.25 -1.125 2.25 0 0 Z " fill="#5D727C" transform="translate(389,277)"/>
<path d="M0 0 C0.66 0 1.32 0 2 0 C1.67 1.65 1.34 3.3 1 5 C-0.32 5.33 -1.64 5.66 -3 6 C-2 4 -1 2 0 0 Z " fill="#3C5868" transform="translate(422,273)"/>
<path d="M0 0 C1.98 0.495 1.98 0.495 4 1 C4.33 2.65 4.66 4.3 5 6 C4.01 6.495 4.01 6.495 3 7 C2.67 6.34 2.34 5.68 2 5 C1.01 4.34 0.02 3.68 -1 3 C-0.67 2.01 -0.34 1.02 0 0 Z " fill="#5F757E" transform="translate(386,268)"/>
<path d="M0 0 C1.98 0 3.96 0 6 0 C5.34 1.32 4.68 2.64 4 4 C3.01 4 2.02 4 1 4 C0.67 2.68 0.34 1.36 0 0 Z " fill="#45565E" transform="translate(390,252)"/>
</svg>
